<svg id="eEgI3bGtfVl1" xmlns="http://www.w3.org/2000/svg" xmlns:xlink="http://www.w3.org/1999/xlink" viewBox="0 0 900 900" shape-rendering="geometricPrecision" text-rendering="geometricPrecision"><defs><linearGradient id="eEgI3bGtfVl3-fill" x1="0" y1="0.5" x2="1" y2="0.5" spreadMethod="pad" gradientUnits="objectBoundingBox" gradientTransform="translate(0 0)"><stop id="eEgI3bGtfVl3-fill-0" offset="0%" stop-color="#c53333"/><stop id="eEgI3bGtfVl3-fill-1" offset="100%" stop-color="#1e3636"/></linearGradient><linearGradient id="eEgI3bGtfVl4-fill" x1="0" y1="0.5" x2="1" y2="0.5" spreadMethod="pad" gradientUnits="objectBoundingBox" gradientTransform="translate(0 0)"><stop id="eEgI3bGtfVl4-fill-0" offset="0%" stop-color="#c53333"/><stop id="eEgI3bGtfVl4-fill-1" offset="100%" stop-color="#1e3636"/></linearGradient><linearGradient id="eEgI3bGtfVl5-fill" x1="0" y1="0.5" x2="1" y2="0.5" spreadMethod="pad" gradientUnits="objectBoundingBox" gradientTransform="translate(0 0)"><stop id="eEgI3bGtfVl5-fill-0" offset="0%" stop-color="#c53333"/><stop id="eEgI3bGtfVl5-fill-1" offset="100%" stop-color="#1e3636"/></linearGradient><linearGradient id="eEgI3bGtfVl6-fill" x1="0" y1="0.5" x2="1" y2="0.5" spreadMethod="pad" gradientUnits="objectBoundingBox" gradientTransform="translate(0 0)"><stop id="eEgI3bGtfVl6-fill-0" offset="0%" stop-color="#c53333"/><stop id="eEgI3bGtfVl6-fill-1" offset="100%" stop-color="#1e3636"/></linearGradient><linearGradient id="eEgI3bGtfVl7-fill" x1="0" y1="0.5" x2="1" y2="0.5" spreadMethod="pad" gradientUnits="objectBoundingBox" gradientTransform="translate(0 0)"><stop id="eEgI3bGtfVl7-fill-0" offset="0%" stop-color="#c53333"/><stop id="eEgI3bGtfVl7-fill-1" offset="100%" stop-color="#1e3636"/></linearGradient><linearGradient id="eEgI3bGtfVl8-fill" x1="0" y1="0.5" x2="1" y2="0.5" spreadMethod="pad" gradientUnits="objectBoundingBox" gradientTransform="translate(0 0)"><stop id="eEgI3bGtfVl8-fill-0" offset="0%" stop-color="#c53333"/><stop id="eEgI3bGtfVl8-fill-1" offset="100%" stop-color="#1e3636"/></linearGradient><linearGradient id="eEgI3bGtfVl9-fill" x1="0" y1="0.5" x2="1" y2="0.5" spreadMethod="pad" gradientUnits="objectBoundingBox" gradientTransform="translate(0 0)"><stop id="eEgI3bGtfVl9-fill-0" offset="0%" stop-color="#c53333"/><stop id="eEgI3bGtfVl9-fill-1" offset="100%" stop-color="#1e3636"/></linearGradient><linearGradient id="eEgI3bGtfVl10-fill" x1="0" y1="0.5" x2="1" y2="0.5" spreadMethod="pad" gradientUnits="objectBoundingBox" gradientTransform="translate(0 0)"><stop id="eEgI3bGtfVl10-fill-0" offset="0%" stop-color="#c53333"/><stop id="eEgI3bGtfVl10-fill-1" offset="100%" stop-color="#1e3636"/></linearGradient><linearGradient id="eEgI3bGtfVl11-fill" x1="0" y1="0.5" x2="1" y2="0.5" spreadMethod="pad" gradientUnits="objectBoundingBox" gradientTransform="translate(0 0)"><stop id="eEgI3bGtfVl11-fill-0" offset="0%" stop-color="#c53333"/><stop id="eEgI3bGtfVl11-fill-1" offset="100%" stop-color="#1e3636"/></linearGradient><linearGradient id="eEgI3bGtfVl12-fill" x1="0" y1="0.5" x2="1" y2="0.5" spreadMethod="pad" gradientUnits="objectBoundingBox" gradientTransform="translate(0 0)"><stop id="eEgI3bGtfVl12-fill-0" offset="0%" stop-color="#c53333"/><stop id="eEgI3bGtfVl12-fill-1" offset="100%" stop-color="#1e3636"/></linearGradient><linearGradient id="eEgI3bGtfVl13-fill" x1="0" y1="0.5" x2="1" y2="0.5" spreadMethod="pad" gradientUnits="objectBoundingBox" gradientTransform="translate(0 0)"><stop id="eEgI3bGtfVl13-fill-0" offset="0%" stop-color="#c53333"/><stop id="eEgI3bGtfVl13-fill-1" offset="100%" stop-color="#1e3636"/></linearGradient><linearGradient id="eEgI3bGtfVl14-fill" x1="0" y1="0.5" x2="1" y2="0.5" spreadMethod="pad" gradientUnits="objectBoundingBox" gradientTransform="translate(0 0)"><stop id="eEgI3bGtfVl14-fill-0" offset="0%" stop-color="#c53333"/><stop id="eEgI3bGtfVl14-fill-1" offset="100%" stop-color="#1e3636"/></linearGradient></defs><g><line x1="0" y1="0" x2="0" y2="900" transform="translate(820 0)" opacity="0.17" fill="url(#eEgI3bGtfVl3-fill)" stroke="#f4f4f4" stroke-width="10"/><line x1="0" y1="0" x2="0" y2="900" transform="translate(900 0)" opacity="0.17" fill="url(#eEgI3bGtfVl4-fill)" stroke="#f4f4f4" stroke-width="10"/><line x1="0" y1="0" x2="0" y2="900" transform="translate(740 0)" opacity="0.17" fill="url(#eEgI3bGtfVl5-fill)" stroke="#f4f4f4" stroke-width="10"/><line x1="0" y1="0" x2="0" y2="900" transform="translate(660 0)" opacity="0.17" fill="url(#eEgI3bGtfVl6-fill)" stroke="#f4f4f4" stroke-width="10"/><line x1="0" y1="0" x2="0" y2="900" transform="translate(580 0)" opacity="0.17" fill="url(#eEgI3bGtfVl7-fill)" stroke="#f4f4f4" stroke-width="10"/><line x1="0" y1="0" x2="0" y2="900" transform="translate(500 0)" opacity="0.17" fill="url(#eEgI3bGtfVl8-fill)" stroke="#f4f4f4" stroke-width="10"/><line x1="0" y1="0" x2="0" y2="900" transform="translate(420 0)" opacity="0.17" fill="url(#eEgI3bGtfVl9-fill)" stroke="#f4f4f4" stroke-width="10"/><line x1="0" y1="0" x2="0" y2="900" transform="translate(340 0)" opacity="0.17" fill="url(#eEgI3bGtfVl10-fill)" stroke="#f4f4f4" stroke-width="10"/><line x1="0" y1="0" x2="0" y2="900" transform="translate(260 0)" opacity="0.17" fill="url(#eEgI3bGtfVl11-fill)" stroke="#f4f4f4" stroke-width="10"/><line x1="0" y1="0" x2="0" y2="900" transform="translate(180 0)" opacity="0.17" fill="url(#eEgI3bGtfVl12-fill)" stroke="#f4f4f4" stroke-width="10"/><line x1="0" y1="0" x2="0" y2="900" transform="translate(100 0)" opacity="0.17" fill="url(#eEgI3bGtfVl13-fill)" stroke="#f4f4f4" stroke-width="10"/><line x1="0" y1="0" x2="0" y2="900" transform="translate(20 0)" opacity="0.17" fill="url(#eEgI3bGtfVl14-fill)" stroke="#f4f4f4" stroke-width="10"/></g><line x1="-450" y1="0" x2="450" y2="0" transform="translate(450 840)" opacity="0.17" fill="none" stroke="#fff" stroke-width="10" stroke-miterlimit="10"/><line x1="-450" y1="0" x2="450" y2="0" transform="translate(450 690)" opacity="0.17" fill="none" stroke="#fff" stroke-width="10" stroke-miterlimit="10"/><line x1="-450" y1="0" x2="450" y2="0" transform="translate(450 555)" opacity="0.17" fill="none" stroke="#fff" stroke-width="10" stroke-miterlimit="10"/><line x1="-450" y1="0" x2="450" y2="0" transform="translate(450 435)" opacity="0.17" fill="none" stroke="#fff" stroke-width="10" stroke-miterlimit="10"/><line x1="-450" y1="0" x2="450" y2="0" transform="translate(450 330)" opacity="0.17" fill="none" stroke="#fff" stroke-width="10" stroke-miterlimit="10"/><line x1="-450" y1="0" x2="450" y2="0" transform="translate(450 240)" opacity="0.17" fill="none" stroke="#fff" stroke-width="10" stroke-miterlimit="10"/><line x1="-450" y1="0" x2="450" y2="0" transform="translate(450 165)" opacity="0.17" fill="none" stroke="#fff" stroke-width="10" stroke-miterlimit="10"/><line x1="-450" y1="0" x2="450" y2="0" transform="translate(450 105)" opacity="0.17" fill="none" stroke="#fff" stroke-width="10" stroke-miterlimit="10"/><line x1="-450" y1="0" x2="450" y2="0" transform="translate(450 60)" opacity="0.17" fill="none" stroke="#fff" stroke-width="10" stroke-miterlimit="10"/><line x1="-450" y1="0" x2="450" y2="0" transform="translate(450 30)" opacity="0.17" fill="none" stroke="#fff" stroke-width="10" stroke-miterlimit="10"/><line x1="1.539589" y1="1.539589" x2="-1.539589" y2="-1.539589" transform="translate(-287.491516 313.554303)" fill="none" stroke="#3f5787" stroke-width="3"/></svg>